<mxfile host="app.diagrams.net" modified="2020-12-08T08:25:13.081Z" agent="5.0 (Macintosh; Intel Mac OS X 10_13_6) AppleWebKit/537.36 (KHTML, like Gecko) Chrome/86.0.4240.198 Safari/537.36" etag="6ZLz4NdidDbMWiZHAFH9" version="13.10.8" type="github">
  <diagram id="4m0wapcWZzs-jETfaVTt" name="第 1 页">
    <mxGraphModel dx="2203" dy="771" grid="1" gridSize="10" guides="1" tooltips="1" connect="1" arrows="1" fold="1" page="1" pageScale="1" pageWidth="827" pageHeight="1169" math="0" shadow="0">
      <root>
        <mxCell id="0" />
        <mxCell id="1" parent="0" />
        <mxCell id="VIq6k27REmudd6MNiA6y-170" value="" style="rounded=1;whiteSpace=wrap;html=1;dashed=1;fillColor=#FFF2CC;" parent="1" vertex="1">
          <mxGeometry x="1031.5" y="60" width="158.5" height="110" as="geometry" />
        </mxCell>
        <mxCell id="VIq6k27REmudd6MNiA6y-151" value="" style="rounded=1;whiteSpace=wrap;html=1;dashed=1;fillColor=#FFFFFF;" parent="1" vertex="1">
          <mxGeometry x="-20" y="374.1" width="90" height="125.5" as="geometry" />
        </mxCell>
        <mxCell id="VIq6k27REmudd6MNiA6y-1" value="" style="rounded=1;whiteSpace=wrap;html=1;dashed=1;" parent="1" vertex="1">
          <mxGeometry x="630" y="240" width="560" height="440" as="geometry" />
        </mxCell>
        <mxCell id="VIq6k27REmudd6MNiA6y-2" value="" style="rounded=1;whiteSpace=wrap;html=1;dashed=1;fillColor=#FFFFFF;" parent="1" vertex="1">
          <mxGeometry x="660" y="580" width="500" height="70" as="geometry" />
        </mxCell>
        <mxCell id="VIq6k27REmudd6MNiA6y-5" value="权限管理" style="aspect=fixed;html=1;points=[];align=center;image;fontSize=12;image=img/lib/azure2/app_services/App_Service_Environments.svg;rounded=1;dashed=1;" parent="1" vertex="1">
          <mxGeometry x="698.5" y="590" width="28.5" height="28.5" as="geometry" />
        </mxCell>
        <mxCell id="VIq6k27REmudd6MNiA6y-9" value="账号管理" style="aspect=fixed;html=1;points=[];align=center;image;fontSize=12;image=img/lib/azure2/app_services/App_Service_Environments.svg;rounded=1;dashed=1;" parent="1" vertex="1">
          <mxGeometry x="790" y="590" width="28.5" height="28.5" as="geometry" />
        </mxCell>
        <mxCell id="VIq6k27REmudd6MNiA6y-10" value="企业管理" style="aspect=fixed;html=1;points=[];align=center;image;fontSize=12;image=img/lib/azure2/app_services/App_Service_Environments.svg;rounded=1;dashed=1;" parent="1" vertex="1">
          <mxGeometry x="892.25" y="590" width="28.5" height="28.5" as="geometry" />
        </mxCell>
        <mxCell id="VIq6k27REmudd6MNiA6y-11" value="应用管理" style="aspect=fixed;html=1;points=[];align=center;image;fontSize=12;image=img/lib/azure2/app_services/App_Service_Environments.svg;rounded=1;dashed=1;" parent="1" vertex="1">
          <mxGeometry x="998.5" y="590" width="28.5" height="28.5" as="geometry" />
        </mxCell>
        <mxCell id="VIq6k27REmudd6MNiA6y-12" value="计费管理" style="aspect=fixed;html=1;points=[];align=center;image;fontSize=12;image=img/lib/azure2/app_services/App_Service_Environments.svg;rounded=1;dashed=1;" parent="1" vertex="1">
          <mxGeometry x="1100" y="590" width="28.5" height="28.5" as="geometry" />
        </mxCell>
        <mxCell id="VIq6k27REmudd6MNiA6y-13" value="九色鹿底座集群" style="text;html=1;strokeColor=none;fillColor=none;align=center;verticalAlign=middle;whiteSpace=wrap;rounded=0;dashed=1;" parent="1" vertex="1">
          <mxGeometry x="660" y="560" width="90" height="20" as="geometry" />
        </mxCell>
        <mxCell id="VIq6k27REmudd6MNiA6y-15" value="" style="rounded=1;whiteSpace=wrap;html=1;dashed=1;fillColor=#FFFFFF;" parent="1" vertex="1">
          <mxGeometry x="660" y="450" width="150" height="60" as="geometry" />
        </mxCell>
        <mxCell id="VIq6k27REmudd6MNiA6y-16" value="" style="aspect=fixed;html=1;points=[];align=center;image;fontSize=12;image=img/lib/azure2/app_services/App_Service_Environments.svg;rounded=1;dashed=1;" parent="1" vertex="1">
          <mxGeometry x="670" y="465.75" width="28.5" height="28.5" as="geometry" />
        </mxCell>
        <mxCell id="VIq6k27REmudd6MNiA6y-17" value="" style="aspect=fixed;html=1;points=[];align=center;image;fontSize=12;image=img/lib/azure2/app_services/App_Service_Environments.svg;rounded=1;dashed=1;" parent="1" vertex="1">
          <mxGeometry x="721.5" y="465.75" width="28.5" height="28.5" as="geometry" />
        </mxCell>
        <mxCell id="VIq6k27REmudd6MNiA6y-20" value="在线客服核心服务集群" style="text;html=1;strokeColor=none;fillColor=none;align=center;verticalAlign=middle;whiteSpace=wrap;rounded=0;dashed=1;" parent="1" vertex="1">
          <mxGeometry x="660" y="420" width="130" height="20" as="geometry" />
        </mxCell>
        <mxCell id="VIq6k27REmudd6MNiA6y-21" value="" style="aspect=fixed;html=1;points=[];align=center;image;fontSize=12;image=img/lib/azure2/app_services/App_Service_Environments.svg;rounded=1;dashed=1;" parent="1" vertex="1">
          <mxGeometry x="771.5" y="465.75" width="28.5" height="28.5" as="geometry" />
        </mxCell>
        <mxCell id="VIq6k27REmudd6MNiA6y-22" value="" style="rounded=1;whiteSpace=wrap;html=1;dashed=1;fillColor=#FFFFFF;" parent="1" vertex="1">
          <mxGeometry x="830" y="450" width="150" height="60" as="geometry" />
        </mxCell>
        <mxCell id="VIq6k27REmudd6MNiA6y-23" value="" style="aspect=fixed;html=1;points=[];align=center;image;fontSize=12;image=img/lib/azure2/app_services/App_Service_Environments.svg;rounded=1;dashed=1;" parent="1" vertex="1">
          <mxGeometry x="840" y="465.75" width="28.5" height="28.5" as="geometry" />
        </mxCell>
        <mxCell id="VIq6k27REmudd6MNiA6y-24" value="" style="aspect=fixed;html=1;points=[];align=center;image;fontSize=12;image=img/lib/azure2/app_services/App_Service_Environments.svg;rounded=1;dashed=1;" parent="1" vertex="1">
          <mxGeometry x="891.5" y="465.75" width="28.5" height="28.5" as="geometry" />
        </mxCell>
        <mxCell id="VIq6k27REmudd6MNiA6y-25" value="" style="aspect=fixed;html=1;points=[];align=center;image;fontSize=12;image=img/lib/azure2/app_services/App_Service_Environments.svg;rounded=1;dashed=1;" parent="1" vertex="1">
          <mxGeometry x="941.5" y="465.75" width="28.5" height="28.5" as="geometry" />
        </mxCell>
        <mxCell id="VIq6k27REmudd6MNiA6y-26" value="呼叫中心核心服务集群" style="text;html=1;strokeColor=none;fillColor=none;align=center;verticalAlign=middle;whiteSpace=wrap;rounded=0;dashed=1;" parent="1" vertex="1">
          <mxGeometry x="828.5" y="420" width="130" height="20" as="geometry" />
        </mxCell>
        <mxCell id="VIq6k27REmudd6MNiA6y-31" value="" style="rounded=1;whiteSpace=wrap;html=1;dashed=1;fillColor=#FFFFFF;" parent="1" vertex="1">
          <mxGeometry x="1000" y="450" width="150" height="60" as="geometry" />
        </mxCell>
        <mxCell id="VIq6k27REmudd6MNiA6y-32" value="" style="aspect=fixed;html=1;points=[];align=center;image;fontSize=12;image=img/lib/azure2/app_services/App_Service_Environments.svg;rounded=1;dashed=1;" parent="1" vertex="1">
          <mxGeometry x="1010" y="465.75" width="28.5" height="28.5" as="geometry" />
        </mxCell>
        <mxCell id="VIq6k27REmudd6MNiA6y-33" value="" style="aspect=fixed;html=1;points=[];align=center;image;fontSize=12;image=img/lib/azure2/app_services/App_Service_Environments.svg;rounded=1;dashed=1;" parent="1" vertex="1">
          <mxGeometry x="1061.5" y="465.75" width="28.5" height="28.5" as="geometry" />
        </mxCell>
        <mxCell id="VIq6k27REmudd6MNiA6y-34" value="" style="aspect=fixed;html=1;points=[];align=center;image;fontSize=12;image=img/lib/azure2/app_services/App_Service_Environments.svg;rounded=1;dashed=1;" parent="1" vertex="1">
          <mxGeometry x="1111.5" y="465.75" width="28.5" height="28.5" as="geometry" />
        </mxCell>
        <mxCell id="VIq6k27REmudd6MNiA6y-35" value="智能机器人核心服务集群" style="text;html=1;strokeColor=none;fillColor=none;align=center;verticalAlign=middle;whiteSpace=wrap;rounded=0;dashed=1;" parent="1" vertex="1">
          <mxGeometry x="998.5" y="420" width="141.5" height="20" as="geometry" />
        </mxCell>
        <mxCell id="VIq6k27REmudd6MNiA6y-37" value="" style="shape=flexArrow;endArrow=classic;startArrow=classic;html=1;width=7;endWidth=15;endSize=4.33;startWidth=15;startSize=4.33;" parent="1" edge="1">
          <mxGeometry width="50" height="50" relative="1" as="geometry">
            <mxPoint x="763" y="579" as="sourcePoint" />
            <mxPoint x="763" y="514" as="targetPoint" />
          </mxGeometry>
        </mxCell>
        <mxCell id="VIq6k27REmudd6MNiA6y-38" value="JSF" style="edgeLabel;html=1;align=center;verticalAlign=middle;resizable=0;points=[];" parent="VIq6k27REmudd6MNiA6y-37" vertex="1" connectable="0">
          <mxGeometry x="0.2182" y="1" relative="1" as="geometry">
            <mxPoint y="5" as="offset" />
          </mxGeometry>
        </mxCell>
        <mxCell id="VIq6k27REmudd6MNiA6y-39" value="" style="shape=flexArrow;endArrow=classic;startArrow=classic;html=1;width=7;endWidth=15;endSize=4.33;startWidth=15;startSize=4.33;" parent="1" edge="1">
          <mxGeometry width="50" height="50" relative="1" as="geometry">
            <mxPoint x="909.5" y="575" as="sourcePoint" />
            <mxPoint x="909.5" y="510" as="targetPoint" />
          </mxGeometry>
        </mxCell>
        <mxCell id="VIq6k27REmudd6MNiA6y-40" value="JSF" style="edgeLabel;html=1;align=center;verticalAlign=middle;resizable=0;points=[];" parent="VIq6k27REmudd6MNiA6y-39" vertex="1" connectable="0">
          <mxGeometry x="0.2182" y="1" relative="1" as="geometry">
            <mxPoint y="5" as="offset" />
          </mxGeometry>
        </mxCell>
        <mxCell id="VIq6k27REmudd6MNiA6y-41" value="" style="shape=flexArrow;endArrow=classic;startArrow=classic;html=1;width=7;endWidth=15;endSize=4.33;startWidth=15;startSize=4.33;" parent="1" edge="1">
          <mxGeometry width="50" height="50" relative="1" as="geometry">
            <mxPoint x="1075.25" y="580" as="sourcePoint" />
            <mxPoint x="1075.25" y="515" as="targetPoint" />
          </mxGeometry>
        </mxCell>
        <mxCell id="VIq6k27REmudd6MNiA6y-42" value="JSF" style="edgeLabel;html=1;align=center;verticalAlign=middle;resizable=0;points=[];" parent="VIq6k27REmudd6MNiA6y-41" vertex="1" connectable="0">
          <mxGeometry x="0.2182" y="1" relative="1" as="geometry">
            <mxPoint y="5" as="offset" />
          </mxGeometry>
        </mxCell>
        <mxCell id="VIq6k27REmudd6MNiA6y-48" value="" style="rounded=1;whiteSpace=wrap;html=1;dashed=1;fillColor=#FFFFFF;" parent="1" vertex="1">
          <mxGeometry x="660" y="290" width="150" height="60" as="geometry" />
        </mxCell>
        <mxCell id="VIq6k27REmudd6MNiA6y-49" value="" style="aspect=fixed;html=1;points=[];align=center;image;fontSize=12;image=img/lib/azure2/app_services/App_Service_Environments.svg;rounded=1;dashed=1;" parent="1" vertex="1">
          <mxGeometry x="670" y="305.75" width="28.5" height="28.5" as="geometry" />
        </mxCell>
        <mxCell id="VIq6k27REmudd6MNiA6y-50" value="" style="aspect=fixed;html=1;points=[];align=center;image;fontSize=12;image=img/lib/azure2/app_services/App_Service_Environments.svg;rounded=1;dashed=1;" parent="1" vertex="1">
          <mxGeometry x="721.5" y="305.75" width="28.5" height="28.5" as="geometry" />
        </mxCell>
        <mxCell id="VIq6k27REmudd6MNiA6y-51" value="在线客服应用层集群" style="text;html=1;strokeColor=none;fillColor=none;align=center;verticalAlign=middle;whiteSpace=wrap;rounded=0;dashed=1;" parent="1" vertex="1">
          <mxGeometry x="660" y="260" width="130" height="20" as="geometry" />
        </mxCell>
        <mxCell id="VIq6k27REmudd6MNiA6y-52" value="" style="aspect=fixed;html=1;points=[];align=center;image;fontSize=12;image=img/lib/azure2/app_services/App_Service_Environments.svg;rounded=1;dashed=1;" parent="1" vertex="1">
          <mxGeometry x="771.5" y="305.75" width="28.5" height="28.5" as="geometry" />
        </mxCell>
        <mxCell id="VIq6k27REmudd6MNiA6y-58" value="" style="rounded=1;whiteSpace=wrap;html=1;dashed=1;fillColor=#FFFFFF;" parent="1" vertex="1">
          <mxGeometry x="831.5" y="290" width="150" height="60" as="geometry" />
        </mxCell>
        <mxCell id="VIq6k27REmudd6MNiA6y-59" value="" style="aspect=fixed;html=1;points=[];align=center;image;fontSize=12;image=img/lib/azure2/app_services/App_Service_Environments.svg;rounded=1;dashed=1;" parent="1" vertex="1">
          <mxGeometry x="841.5" y="305.75" width="28.5" height="28.5" as="geometry" />
        </mxCell>
        <mxCell id="VIq6k27REmudd6MNiA6y-60" value="" style="aspect=fixed;html=1;points=[];align=center;image;fontSize=12;image=img/lib/azure2/app_services/App_Service_Environments.svg;rounded=1;dashed=1;" parent="1" vertex="1">
          <mxGeometry x="893" y="305.75" width="28.5" height="28.5" as="geometry" />
        </mxCell>
        <mxCell id="VIq6k27REmudd6MNiA6y-61" value="呼叫中心应用层集群" style="text;html=1;strokeColor=none;fillColor=none;align=center;verticalAlign=middle;whiteSpace=wrap;rounded=0;dashed=1;" parent="1" vertex="1">
          <mxGeometry x="831.5" y="260" width="130" height="20" as="geometry" />
        </mxCell>
        <mxCell id="VIq6k27REmudd6MNiA6y-62" value="" style="aspect=fixed;html=1;points=[];align=center;image;fontSize=12;image=img/lib/azure2/app_services/App_Service_Environments.svg;rounded=1;dashed=1;" parent="1" vertex="1">
          <mxGeometry x="943" y="305.75" width="28.5" height="28.5" as="geometry" />
        </mxCell>
        <mxCell id="VIq6k27REmudd6MNiA6y-63" value="" style="rounded=1;whiteSpace=wrap;html=1;dashed=1;fillColor=#FFFFFF;" parent="1" vertex="1">
          <mxGeometry x="1000.75" y="290" width="150" height="60" as="geometry" />
        </mxCell>
        <mxCell id="VIq6k27REmudd6MNiA6y-64" value="" style="aspect=fixed;html=1;points=[];align=center;image;fontSize=12;image=img/lib/azure2/app_services/App_Service_Environments.svg;rounded=1;dashed=1;" parent="1" vertex="1">
          <mxGeometry x="1010.75" y="305.75" width="28.5" height="28.5" as="geometry" />
        </mxCell>
        <mxCell id="VIq6k27REmudd6MNiA6y-65" value="" style="aspect=fixed;html=1;points=[];align=center;image;fontSize=12;image=img/lib/azure2/app_services/App_Service_Environments.svg;rounded=1;dashed=1;" parent="1" vertex="1">
          <mxGeometry x="1062.25" y="305.75" width="28.5" height="28.5" as="geometry" />
        </mxCell>
        <mxCell id="VIq6k27REmudd6MNiA6y-66" value="智能机器人应用层集群" style="text;html=1;strokeColor=none;fillColor=none;align=center;verticalAlign=middle;whiteSpace=wrap;rounded=0;dashed=1;" parent="1" vertex="1">
          <mxGeometry x="1000.75" y="260" width="130" height="20" as="geometry" />
        </mxCell>
        <mxCell id="VIq6k27REmudd6MNiA6y-67" value="" style="aspect=fixed;html=1;points=[];align=center;image;fontSize=12;image=img/lib/azure2/app_services/App_Service_Environments.svg;rounded=1;dashed=1;" parent="1" vertex="1">
          <mxGeometry x="1112.25" y="305.75" width="28.5" height="28.5" as="geometry" />
        </mxCell>
        <mxCell id="VIq6k27REmudd6MNiA6y-69" value="" style="shape=flexArrow;endArrow=classic;startArrow=classic;html=1;width=7;endWidth=15;endSize=4.33;startWidth=15;startSize=4.33;" parent="1" edge="1">
          <mxGeometry width="50" height="50" relative="1" as="geometry">
            <mxPoint x="734.5" y="420" as="sourcePoint" />
            <mxPoint x="734.5" y="355" as="targetPoint" />
          </mxGeometry>
        </mxCell>
        <mxCell id="VIq6k27REmudd6MNiA6y-70" value="JSF" style="edgeLabel;html=1;align=center;verticalAlign=middle;resizable=0;points=[];" parent="VIq6k27REmudd6MNiA6y-69" vertex="1" connectable="0">
          <mxGeometry x="0.2182" y="1" relative="1" as="geometry">
            <mxPoint y="5" as="offset" />
          </mxGeometry>
        </mxCell>
        <mxCell id="VIq6k27REmudd6MNiA6y-71" value="" style="shape=flexArrow;endArrow=classic;startArrow=classic;html=1;width=7;endWidth=15;endSize=4.33;startWidth=15;startSize=4.33;" parent="1" edge="1">
          <mxGeometry width="50" height="50" relative="1" as="geometry">
            <mxPoint x="906.75" y="420" as="sourcePoint" />
            <mxPoint x="906.75" y="355" as="targetPoint" />
          </mxGeometry>
        </mxCell>
        <mxCell id="VIq6k27REmudd6MNiA6y-72" value="JSF" style="edgeLabel;html=1;align=center;verticalAlign=middle;resizable=0;points=[];" parent="VIq6k27REmudd6MNiA6y-71" vertex="1" connectable="0">
          <mxGeometry x="0.2182" y="1" relative="1" as="geometry">
            <mxPoint y="5" as="offset" />
          </mxGeometry>
        </mxCell>
        <mxCell id="VIq6k27REmudd6MNiA6y-73" value="" style="shape=flexArrow;endArrow=classic;startArrow=classic;html=1;width=7;endWidth=15;endSize=4.33;startWidth=15;startSize=4.33;" parent="1" edge="1">
          <mxGeometry width="50" height="50" relative="1" as="geometry">
            <mxPoint x="1085.25" y="420" as="sourcePoint" />
            <mxPoint x="1085.25" y="355" as="targetPoint" />
          </mxGeometry>
        </mxCell>
        <mxCell id="VIq6k27REmudd6MNiA6y-74" value="JSF" style="edgeLabel;html=1;align=center;verticalAlign=middle;resizable=0;points=[];" parent="VIq6k27REmudd6MNiA6y-73" vertex="1" connectable="0">
          <mxGeometry x="0.2182" y="1" relative="1" as="geometry">
            <mxPoint y="5" as="offset" />
          </mxGeometry>
        </mxCell>
        <mxCell id="VIq6k27REmudd6MNiA6y-75" value="" style="rounded=1;whiteSpace=wrap;html=1;dashed=1;fillColor=#FFFFFF;" parent="1" vertex="1">
          <mxGeometry x="130" y="366.85" width="100" height="140" as="geometry" />
        </mxCell>
        <mxCell id="VIq6k27REmudd6MNiA6y-76" value="" style="outlineConnect=0;dashed=0;verticalLabelPosition=bottom;verticalAlign=top;align=center;html=1;shape=mxgraph.aws3.customer_gateway;fillColor=#F58534;gradientColor=none;rounded=1;" parent="1" vertex="1">
          <mxGeometry x="140" y="411.1" width="30" height="30" as="geometry" />
        </mxCell>
        <mxCell id="VIq6k27REmudd6MNiA6y-77" value="" style="outlineConnect=0;dashed=0;verticalLabelPosition=bottom;verticalAlign=top;align=center;html=1;shape=mxgraph.aws3.customer_gateway;fillColor=#F58534;gradientColor=none;rounded=1;" parent="1" vertex="1">
          <mxGeometry x="190" y="411.1" width="30" height="30" as="geometry" />
        </mxCell>
        <mxCell id="VIq6k27REmudd6MNiA6y-78" value="" style="outlineConnect=0;dashed=0;verticalLabelPosition=bottom;verticalAlign=top;align=center;html=1;shape=mxgraph.aws3.customer_gateway;fillColor=#F58534;gradientColor=none;rounded=1;" parent="1" vertex="1">
          <mxGeometry x="140" y="466.85" width="30" height="30" as="geometry" />
        </mxCell>
        <mxCell id="VIq6k27REmudd6MNiA6y-79" value="九色鹿网关" style="text;html=1;strokeColor=none;fillColor=none;align=center;verticalAlign=middle;whiteSpace=wrap;rounded=0;dashed=1;" parent="1" vertex="1">
          <mxGeometry x="115" y="374.1" width="130" height="20" as="geometry" />
        </mxCell>
        <mxCell id="VIq6k27REmudd6MNiA6y-81" value="" style="shape=flexArrow;endArrow=classic;startArrow=none;html=1;width=7;endWidth=15;endSize=4.33;startWidth=15;startSize=4.33;startFill=0;" parent="1" edge="1">
          <mxGeometry width="50" height="50" relative="1" as="geometry">
            <mxPoint x="330" y="440" as="sourcePoint" />
            <mxPoint x="620" y="440" as="targetPoint" />
          </mxGeometry>
        </mxCell>
        <mxCell id="VIq6k27REmudd6MNiA6y-85" value="" style="rounded=1;whiteSpace=wrap;html=1;dashed=1;fillColor=#FFF2CC;" parent="1" vertex="1">
          <mxGeometry x="375" y="70" width="220" height="140" as="geometry" />
        </mxCell>
        <mxCell id="VIq6k27REmudd6MNiA6y-86" value="" style="outlineConnect=0;dashed=0;verticalLabelPosition=bottom;verticalAlign=top;align=center;html=1;shape=mxgraph.aws3.customer_gateway;fillColor=#F58534;gradientColor=none;rounded=1;" parent="1" vertex="1">
          <mxGeometry x="190" y="466.85" width="30" height="30" as="geometry" />
        </mxCell>
        <mxCell id="VIq6k27REmudd6MNiA6y-92" value="注册" style="endArrow=classic;startArrow=classic;html=1;" parent="1" edge="1">
          <mxGeometry width="50" height="50" relative="1" as="geometry">
            <mxPoint x="425" y="160" as="sourcePoint" />
            <mxPoint x="475" y="120" as="targetPoint" />
          </mxGeometry>
        </mxCell>
        <mxCell id="VIq6k27REmudd6MNiA6y-93" value="注册" style="endArrow=classic;startArrow=classic;html=1;entryX=-0.037;entryY=0.5;entryDx=0;entryDy=0;entryPerimeter=0;" parent="1" edge="1">
          <mxGeometry width="50" height="50" relative="1" as="geometry">
            <mxPoint x="431.74" y="169.5" as="sourcePoint" />
            <mxPoint x="530.26" y="169.5" as="targetPoint" />
          </mxGeometry>
        </mxCell>
        <mxCell id="VIq6k27REmudd6MNiA6y-95" value="注册" style="endArrow=classic;startArrow=classic;html=1;entryX=0.013;entryY=0.075;entryDx=0;entryDy=0;entryPerimeter=0;" parent="1" edge="1">
          <mxGeometry width="50" height="50" relative="1" as="geometry">
            <mxPoint x="485" y="120" as="sourcePoint" />
            <mxPoint x="535.52" y="163" as="targetPoint" />
          </mxGeometry>
        </mxCell>
        <mxCell id="VIq6k27REmudd6MNiA6y-96" value="" style="html=1;aspect=fixed;strokeColor=none;shadow=0;align=center;verticalAlign=top;fillColor=#3B8DF1;shape=mxgraph.gcp2.node;rounded=1;dashed=1;" parent="1" vertex="1">
          <mxGeometry x="465" y="80" width="32" height="40" as="geometry" />
        </mxCell>
        <mxCell id="VIq6k27REmudd6MNiA6y-97" value="" style="html=1;aspect=fixed;strokeColor=none;shadow=0;align=center;verticalAlign=top;fillColor=#3B8DF1;shape=mxgraph.gcp2.node;rounded=1;dashed=1;" parent="1" vertex="1">
          <mxGeometry x="535" y="150" width="32" height="40" as="geometry" />
        </mxCell>
        <mxCell id="VIq6k27REmudd6MNiA6y-98" value="" style="html=1;aspect=fixed;strokeColor=none;shadow=0;align=center;verticalAlign=top;fillColor=#3B8DF1;shape=mxgraph.gcp2.node;rounded=1;dashed=1;" parent="1" vertex="1">
          <mxGeometry x="395" y="150" width="32" height="40" as="geometry" />
        </mxCell>
        <mxCell id="VIq6k27REmudd6MNiA6y-99" value="JSF注册中心集群" style="text;html=1;strokeColor=none;fillColor=none;align=center;verticalAlign=middle;whiteSpace=wrap;rounded=0;dashed=1;" parent="1" vertex="1">
          <mxGeometry x="480" y="80" width="130" height="20" as="geometry" />
        </mxCell>
        <mxCell id="VIq6k27REmudd6MNiA6y-100" value="" style="shape=flexArrow;endArrow=classic;startArrow=classic;html=1;width=7;endWidth=15;endSize=4.33;startWidth=15;startSize=4.33;entryX=0.395;entryY=1.021;entryDx=0;entryDy=0;entryPerimeter=0;" parent="1" source="G7z-j5rVqPP3TAjrnrh4-25" edge="1" target="VIq6k27REmudd6MNiA6y-85">
          <mxGeometry width="50" height="50" relative="1" as="geometry">
            <mxPoint x="290" y="370" as="sourcePoint" />
            <mxPoint x="503.5" y="210" as="targetPoint" />
          </mxGeometry>
        </mxCell>
        <mxCell id="VIq6k27REmudd6MNiA6y-102" value="获取服务列表" style="edgeLabel;html=1;align=center;verticalAlign=middle;resizable=0;points=[];" parent="VIq6k27REmudd6MNiA6y-100" vertex="1" connectable="0">
          <mxGeometry x="0.0402" relative="1" as="geometry">
            <mxPoint x="1" as="offset" />
          </mxGeometry>
        </mxCell>
        <mxCell id="VIq6k27REmudd6MNiA6y-103" value="" style="shape=flexArrow;endArrow=classic;startArrow=classic;html=1;width=7;endWidth=15;endSize=4.33;startWidth=15;startSize=4.33;exitX=0.75;exitY=0;exitDx=0;exitDy=0;entryX=-0.005;entryY=0.273;entryDx=0;entryDy=0;entryPerimeter=0;" parent="1" target="VIq6k27REmudd6MNiA6y-1" edge="1">
          <mxGeometry width="50" height="50" relative="1" as="geometry">
            <mxPoint x="516" y="210" as="sourcePoint" />
            <mxPoint x="621" y="400" as="targetPoint" />
          </mxGeometry>
        </mxCell>
        <mxCell id="VIq6k27REmudd6MNiA6y-104" value="注册服务" style="edgeLabel;html=1;align=center;verticalAlign=middle;resizable=0;points=[];" parent="VIq6k27REmudd6MNiA6y-103" vertex="1" connectable="0">
          <mxGeometry x="0.0402" relative="1" as="geometry">
            <mxPoint x="1" as="offset" />
          </mxGeometry>
        </mxCell>
        <mxCell id="VIq6k27REmudd6MNiA6y-105" value="" style="rounded=1;whiteSpace=wrap;html=1;dashed=1;fillColor=#FFF2CC;" parent="1" vertex="1">
          <mxGeometry x="648.58" y="770" width="140" height="100" as="geometry" />
        </mxCell>
        <mxCell id="VIq6k27REmudd6MNiA6y-108" value="" style="perimeter=ellipsePerimeter;html=1;align=center;shadow=0;dashed=0;fontColor=#4277BB;labelBackgroundColor=#ffffff;fontSize=12;spacingTop=3;image;image=img/lib/ibm/vpc/ObjectStorage.svg;rounded=1;fillColor=#FFFFFF;" parent="1" vertex="1">
          <mxGeometry x="670" y="813" width="38" height="38" as="geometry" />
        </mxCell>
        <mxCell id="VIq6k27REmudd6MNiA6y-109" value="" style="perimeter=ellipsePerimeter;html=1;align=center;shadow=0;dashed=0;fontColor=#4277BB;labelBackgroundColor=#ffffff;fontSize=12;spacingTop=3;image;image=img/lib/ibm/vpc/ObjectStorage.svg;rounded=1;fillColor=#FFFFFF;" parent="1" vertex="1">
          <mxGeometry x="730.35" y="813" width="38" height="38" as="geometry" />
        </mxCell>
        <mxCell id="VIq6k27REmudd6MNiA6y-110" value="对象存储OSS" style="text;html=1;strokeColor=none;fillColor=none;align=center;verticalAlign=middle;whiteSpace=wrap;rounded=0;dashed=1;" parent="1" vertex="1">
          <mxGeometry x="651" y="780" width="130" height="20" as="geometry" />
        </mxCell>
        <mxCell id="VIq6k27REmudd6MNiA6y-112" value="" style="shape=flexArrow;endArrow=classic;startArrow=classic;html=1;width=7;endWidth=15;endSize=4.33;startWidth=15;startSize=4.33;" parent="1" edge="1">
          <mxGeometry width="50" height="50" relative="1" as="geometry">
            <mxPoint x="709.5" y="770" as="sourcePoint" />
            <mxPoint x="709.75" y="680" as="targetPoint" />
          </mxGeometry>
        </mxCell>
        <mxCell id="VIq6k27REmudd6MNiA6y-113" value="多云OSS client" style="edgeLabel;html=1;align=center;verticalAlign=middle;resizable=0;points=[];" parent="VIq6k27REmudd6MNiA6y-112" vertex="1" connectable="0">
          <mxGeometry x="0.0402" relative="1" as="geometry">
            <mxPoint x="1" as="offset" />
          </mxGeometry>
        </mxCell>
        <mxCell id="VIq6k27REmudd6MNiA6y-114" value="" style="rounded=1;whiteSpace=wrap;html=1;dashed=1;fillColor=#FFF2CC;" parent="1" vertex="1">
          <mxGeometry x="375" y="650" width="193" height="110" as="geometry" />
        </mxCell>
        <mxCell id="VIq6k27REmudd6MNiA6y-121" value="DUCC配置中心" style="text;html=1;strokeColor=none;fillColor=none;align=center;verticalAlign=middle;whiteSpace=wrap;rounded=0;dashed=1;" parent="1" vertex="1">
          <mxGeometry x="440" y="663" width="130" height="20" as="geometry" />
        </mxCell>
        <mxCell id="VIq6k27REmudd6MNiA6y-122" value="" style="aspect=fixed;html=1;points=[];align=center;image;fontSize=12;image=img/lib/azure2/compute/Cloud_Services_Classic.svg;rounded=1;dashed=1;fillColor=#FFFFFF;" parent="1" vertex="1">
          <mxGeometry x="395" y="710" width="44.31" height="32" as="geometry" />
        </mxCell>
        <mxCell id="VIq6k27REmudd6MNiA6y-123" value="" style="aspect=fixed;html=1;points=[];align=center;image;fontSize=12;image=img/lib/azure2/compute/Cloud_Services_Classic.svg;rounded=1;dashed=1;fillColor=#FFFFFF;" parent="1" vertex="1">
          <mxGeometry x="395" y="663" width="44.31" height="32" as="geometry" />
        </mxCell>
        <mxCell id="VIq6k27REmudd6MNiA6y-124" value="" style="aspect=fixed;html=1;points=[];align=center;image;fontSize=12;image=img/lib/azure2/compute/Cloud_Services_Classic.svg;rounded=1;dashed=1;fillColor=#FFFFFF;" parent="1" vertex="1">
          <mxGeometry x="480.00000000000006" y="710" width="44.31" height="32" as="geometry" />
        </mxCell>
        <mxCell id="VIq6k27REmudd6MNiA6y-125" value="" style="shape=flexArrow;endArrow=classic;startArrow=classic;html=1;width=7;endWidth=15;endSize=4.33;startWidth=15;startSize=4.33;" parent="1" source="VIq6k27REmudd6MNiA6y-114" edge="1" target="G7z-j5rVqPP3TAjrnrh4-25">
          <mxGeometry width="50" height="50" relative="1" as="geometry">
            <mxPoint x="321.5" y="670" as="sourcePoint" />
            <mxPoint x="300" y="480" as="targetPoint" />
          </mxGeometry>
        </mxCell>
        <mxCell id="VIq6k27REmudd6MNiA6y-126" value="同步或获取配置" style="edgeLabel;html=1;align=center;verticalAlign=middle;resizable=0;points=[];" parent="VIq6k27REmudd6MNiA6y-125" vertex="1" connectable="0">
          <mxGeometry x="0.0402" relative="1" as="geometry">
            <mxPoint x="1" as="offset" />
          </mxGeometry>
        </mxCell>
        <mxCell id="VIq6k27REmudd6MNiA6y-127" value="" style="shape=flexArrow;endArrow=classic;startArrow=classic;html=1;width=7;endWidth=15;endSize=4.33;startWidth=15;startSize=4.33;entryX=-0.009;entryY=0.58;entryDx=0;entryDy=0;entryPerimeter=0;exitX=0.75;exitY=0;exitDx=0;exitDy=0;" parent="1" source="VIq6k27REmudd6MNiA6y-114" target="VIq6k27REmudd6MNiA6y-1" edge="1">
          <mxGeometry width="50" height="50" relative="1" as="geometry">
            <mxPoint x="600.0033333333332" y="640" as="sourcePoint" />
            <mxPoint x="558.67" y="500" as="targetPoint" />
          </mxGeometry>
        </mxCell>
        <mxCell id="VIq6k27REmudd6MNiA6y-128" value="同步或获取配置" style="edgeLabel;html=1;align=center;verticalAlign=middle;resizable=0;points=[];" parent="VIq6k27REmudd6MNiA6y-127" vertex="1" connectable="0">
          <mxGeometry x="0.0402" relative="1" as="geometry">
            <mxPoint x="1" as="offset" />
          </mxGeometry>
        </mxCell>
        <mxCell id="VIq6k27REmudd6MNiA6y-130" value="" style="rounded=1;whiteSpace=wrap;html=1;fillColor=#FFF2CC;dashed=1;" parent="1" vertex="1">
          <mxGeometry x="847" y="770" width="140" height="100" as="geometry" />
        </mxCell>
        <mxCell id="VIq6k27REmudd6MNiA6y-131" value="" style="outlineConnect=0;dashed=0;verticalLabelPosition=bottom;verticalAlign=top;align=center;html=1;shape=mxgraph.aws3.mysql_db_instance_2;fillColor=#2E73B8;gradientColor=none;rounded=1;" parent="1" vertex="1">
          <mxGeometry x="864.25" y="812" width="38.5" height="38" as="geometry" />
        </mxCell>
        <mxCell id="VIq6k27REmudd6MNiA6y-132" value="" style="outlineConnect=0;dashed=0;verticalLabelPosition=bottom;verticalAlign=top;align=center;html=1;shape=mxgraph.aws3.mysql_db_instance_2;fillColor=#2E73B8;gradientColor=none;rounded=1;" parent="1" vertex="1">
          <mxGeometry x="928.5" y="811" width="38.5" height="39" as="geometry" />
        </mxCell>
        <mxCell id="VIq6k27REmudd6MNiA6y-133" value="弹性数据库" style="text;html=1;strokeColor=none;fillColor=none;align=center;verticalAlign=middle;whiteSpace=wrap;rounded=0;dashed=1;" parent="1" vertex="1">
          <mxGeometry x="852" y="780" width="130" height="20" as="geometry" />
        </mxCell>
        <mxCell id="VIq6k27REmudd6MNiA6y-134" value="" style="shape=flexArrow;endArrow=classic;startArrow=classic;html=1;width=7;endWidth=15;endSize=4.33;startWidth=15;startSize=4.33;" parent="1" edge="1">
          <mxGeometry width="50" height="50" relative="1" as="geometry">
            <mxPoint x="921.5" y="770" as="sourcePoint" />
            <mxPoint x="921.75" y="680" as="targetPoint" />
          </mxGeometry>
        </mxCell>
        <mxCell id="VIq6k27REmudd6MNiA6y-136" value="" style="rounded=1;whiteSpace=wrap;html=1;dashed=1;fillColor=#FFF2CC;" parent="1" vertex="1">
          <mxGeometry x="1054.25" y="770" width="135.75" height="100" as="geometry" />
        </mxCell>
        <mxCell id="VIq6k27REmudd6MNiA6y-137" value="" style="aspect=fixed;html=1;points=[];align=center;image;fontSize=12;image=img/lib/mscae/Cache_Redis_Product.svg;rounded=1;dashed=1;fillColor=#FFF2CC;" parent="1" vertex="1">
          <mxGeometry x="1070" y="813" width="44.05" height="37" as="geometry" />
        </mxCell>
        <mxCell id="VIq6k27REmudd6MNiA6y-138" value="" style="aspect=fixed;html=1;points=[];align=center;image;fontSize=12;image=img/lib/mscae/Cache_Redis_Product.svg;rounded=1;dashed=1;fillColor=#FFF2CC;" parent="1" vertex="1">
          <mxGeometry x="1130.75" y="813" width="44.05" height="37" as="geometry" />
        </mxCell>
        <mxCell id="VIq6k27REmudd6MNiA6y-139" value="缓存中间件" style="text;html=1;strokeColor=none;fillColor=none;align=center;verticalAlign=middle;whiteSpace=wrap;rounded=0;dashed=1;" parent="1" vertex="1">
          <mxGeometry x="1057.13" y="780" width="130" height="20" as="geometry" />
        </mxCell>
        <mxCell id="VIq6k27REmudd6MNiA6y-140" value="" style="shape=flexArrow;endArrow=classic;startArrow=classic;html=1;width=7;endWidth=15;endSize=4.33;startWidth=15;startSize=4.33;" parent="1" edge="1">
          <mxGeometry width="50" height="50" relative="1" as="geometry">
            <mxPoint x="1121.63" y="770" as="sourcePoint" />
            <mxPoint x="1121.88" y="680" as="targetPoint" />
          </mxGeometry>
        </mxCell>
        <mxCell id="VIq6k27REmudd6MNiA6y-141" value="" style="rounded=1;whiteSpace=wrap;html=1;dashed=1;fillColor=#FFF2CC;" parent="1" vertex="1">
          <mxGeometry x="630" y="60" width="172" height="110" as="geometry" />
        </mxCell>
        <mxCell id="VIq6k27REmudd6MNiA6y-142" value="" style="html=1;points=[];align=center;image;fontSize=12;image=img/lib/azure2/general/Storage_Queue.svg;rounded=1;dashed=1;fillColor=#FFF2CC;" parent="1" vertex="1">
          <mxGeometry x="658.5" y="110" width="40" height="40" as="geometry" />
        </mxCell>
        <mxCell id="VIq6k27REmudd6MNiA6y-143" value="" style="html=1;points=[];align=center;image;fontSize=12;image=img/lib/azure2/general/Storage_Queue.svg;rounded=1;dashed=1;fillColor=#FFF2CC;" parent="1" vertex="1">
          <mxGeometry x="727.19" y="110" width="40" height="40" as="geometry" />
        </mxCell>
        <mxCell id="VIq6k27REmudd6MNiA6y-144" value="消息队列集群" style="text;html=1;strokeColor=none;fillColor=none;align=center;verticalAlign=middle;whiteSpace=wrap;rounded=0;dashed=1;" parent="1" vertex="1">
          <mxGeometry x="651" y="70" width="130" height="20" as="geometry" />
        </mxCell>
        <mxCell id="VIq6k27REmudd6MNiA6y-145" value="" style="shape=flexArrow;endArrow=classic;startArrow=classic;html=1;width=7;endWidth=15;endSize=4.33;startWidth=15;startSize=4.33;" parent="1" edge="1">
          <mxGeometry width="50" height="50" relative="1" as="geometry">
            <mxPoint x="716" y="234" as="sourcePoint" />
            <mxPoint x="715.5" y="174" as="targetPoint" />
          </mxGeometry>
        </mxCell>
        <mxCell id="VIq6k27REmudd6MNiA6y-146" value="" style="verticalLabelPosition=bottom;html=1;verticalAlign=top;align=center;strokeColor=none;fillColor=#00BEF2;shape=mxgraph.azure.mobile;pointerEvents=1;rounded=1;dashed=1;" parent="1" vertex="1">
          <mxGeometry x="-217.5" y="383.31" width="20" height="41.25" as="geometry" />
        </mxCell>
        <mxCell id="VIq6k27REmudd6MNiA6y-147" value="" style="verticalLabelPosition=bottom;html=1;verticalAlign=top;align=center;strokeColor=none;fillColor=#00BEF2;shape=mxgraph.azure.computer;pointerEvents=1;rounded=1;dashed=1;" parent="1" vertex="1">
          <mxGeometry x="-227.5" y="460.81" width="40" height="33.75" as="geometry" />
        </mxCell>
        <mxCell id="VIq6k27REmudd6MNiA6y-152" value="负载均衡/SLB" style="text;html=1;strokeColor=none;fillColor=none;align=center;verticalAlign=middle;whiteSpace=wrap;rounded=0;dashed=1;" parent="1" vertex="1">
          <mxGeometry x="-15" y="384.1" width="90" height="12.75" as="geometry" />
        </mxCell>
        <mxCell id="VIq6k27REmudd6MNiA6y-153" value="" style="outlineConnect=0;dashed=0;verticalLabelPosition=bottom;verticalAlign=top;align=center;html=1;shape=mxgraph.aws3.classic_load_balancer;fillColor=#F58534;gradientColor=none;rounded=1;" parent="1" vertex="1">
          <mxGeometry x="10" y="411.1" width="30" height="30" as="geometry" />
        </mxCell>
        <mxCell id="VIq6k27REmudd6MNiA6y-154" value="" style="outlineConnect=0;dashed=0;verticalLabelPosition=bottom;verticalAlign=top;align=center;html=1;shape=mxgraph.aws3.classic_load_balancer;fillColor=#F58534;gradientColor=none;rounded=1;" parent="1" vertex="1">
          <mxGeometry x="10" y="452.6" width="30" height="30" as="geometry" />
        </mxCell>
        <mxCell id="VIq6k27REmudd6MNiA6y-155" value="" style="endArrow=classic;html=1;" parent="1" edge="1">
          <mxGeometry width="50" height="50" relative="1" as="geometry">
            <mxPoint x="-187.5" y="399.18" as="sourcePoint" />
            <mxPoint x="-147.5" y="399.18" as="targetPoint" />
          </mxGeometry>
        </mxCell>
        <mxCell id="VIq6k27REmudd6MNiA6y-156" value="" style="endArrow=classic;html=1;" parent="1" edge="1">
          <mxGeometry width="50" height="50" relative="1" as="geometry">
            <mxPoint x="-87.5" y="476.69" as="sourcePoint" />
            <mxPoint x="-27.5" y="476.3100000000001" as="targetPoint" />
          </mxGeometry>
        </mxCell>
        <mxCell id="VIq6k27REmudd6MNiA6y-158" value="" style="shape=flexArrow;endArrow=classic;startArrow=none;html=1;width=7;endWidth=15;endSize=4.33;startWidth=15;startSize=4.33;startFill=0;" parent="1" edge="1">
          <mxGeometry width="50" height="50" relative="1" as="geometry">
            <mxPoint x="82.5" y="436.35" as="sourcePoint" />
            <mxPoint x="130" y="436.35" as="targetPoint" />
          </mxGeometry>
        </mxCell>
        <mxCell id="VIq6k27REmudd6MNiA6y-162" value="" style="rounded=1;whiteSpace=wrap;html=1;dashed=1;fillColor=#FFF2CC;" parent="1" vertex="1">
          <mxGeometry x="821.5" y="60" width="168.5" height="110" as="geometry" />
        </mxCell>
        <mxCell id="VIq6k27REmudd6MNiA6y-164" value="" style="outlineConnect=0;dashed=0;verticalLabelPosition=bottom;verticalAlign=top;align=center;html=1;shape=mxgraph.aws3.elasticsearch_service;fillColor=#F58534;gradientColor=none;rounded=1;aspect=fixed;" parent="1" vertex="1">
          <mxGeometry x="859.5" y="110" width="32" height="40" as="geometry" />
        </mxCell>
        <mxCell id="VIq6k27REmudd6MNiA6y-165" value="" style="outlineConnect=0;dashed=0;verticalLabelPosition=bottom;verticalAlign=top;align=center;html=1;shape=mxgraph.aws3.elasticsearch_service;fillColor=#F58534;gradientColor=none;rounded=1;aspect=fixed;" parent="1" vertex="1">
          <mxGeometry x="926.5" y="110" width="32" height="40" as="geometry" />
        </mxCell>
        <mxCell id="VIq6k27REmudd6MNiA6y-167" value="ElasticSearch集群" style="text;html=1;strokeColor=none;fillColor=none;align=center;verticalAlign=middle;whiteSpace=wrap;rounded=0;dashed=1;" parent="1" vertex="1">
          <mxGeometry x="841.5" y="70" width="130" height="20" as="geometry" />
        </mxCell>
        <mxCell id="VIq6k27REmudd6MNiA6y-168" value="" style="shape=flexArrow;endArrow=classic;startArrow=classic;html=1;width=7;endWidth=15;endSize=4.33;startWidth=15;startSize=4.33;" parent="1" edge="1">
          <mxGeometry width="50" height="50" relative="1" as="geometry">
            <mxPoint x="905.75" y="230" as="sourcePoint" />
            <mxPoint x="905.25" y="170" as="targetPoint" />
          </mxGeometry>
        </mxCell>
        <mxCell id="VIq6k27REmudd6MNiA6y-169" value="" style="html=1;points=[];align=center;image;fontSize=12;image=img/lib/mscae/Databricks.svg;rounded=1;dashed=1;fillColor=#FFF2CC;" parent="1" vertex="1">
          <mxGeometry x="1054.25" y="110" width="40" height="40" as="geometry" />
        </mxCell>
        <mxCell id="VIq6k27REmudd6MNiA6y-171" value="" style="html=1;points=[];align=center;image;fontSize=12;image=img/lib/mscae/Databricks.svg;rounded=1;dashed=1;fillColor=#FFF2CC;" parent="1" vertex="1">
          <mxGeometry x="1130.75" y="110" width="40" height="40" as="geometry" />
        </mxCell>
        <mxCell id="VIq6k27REmudd6MNiA6y-172" value="Hbase集群" style="text;html=1;strokeColor=none;fillColor=none;align=center;verticalAlign=middle;whiteSpace=wrap;rounded=0;dashed=1;" parent="1" vertex="1">
          <mxGeometry x="1039.25" y="70" width="130" height="20" as="geometry" />
        </mxCell>
        <mxCell id="VIq6k27REmudd6MNiA6y-173" value="" style="shape=flexArrow;endArrow=classic;startArrow=classic;html=1;width=7;endWidth=15;endSize=4.33;startWidth=15;startSize=4.33;" parent="1" edge="1">
          <mxGeometry width="50" height="50" relative="1" as="geometry">
            <mxPoint x="1112.75" y="230" as="sourcePoint" />
            <mxPoint x="1112.25" y="170" as="targetPoint" />
          </mxGeometry>
        </mxCell>
        <mxCell id="G7z-j5rVqPP3TAjrnrh4-3" value="" style="rounded=1;whiteSpace=wrap;html=1;dashed=1;fillColor=#FFFFFF;" vertex="1" parent="1">
          <mxGeometry x="120" y="590" width="120" height="120" as="geometry" />
        </mxCell>
        <mxCell id="G7z-j5rVqPP3TAjrnrh4-4" value="" style="aspect=fixed;html=1;points=[];align=center;image;fontSize=12;image=img/lib/azure2/preview/Static_Apps.svg;rounded=0;dashed=1;fillColor=#FFFFFF;" vertex="1" parent="1">
          <mxGeometry x="135" y="627" width="30" height="24" as="geometry" />
        </mxCell>
        <mxCell id="G7z-j5rVqPP3TAjrnrh4-5" value="" style="aspect=fixed;html=1;points=[];align=center;image;fontSize=12;image=img/lib/azure2/preview/Static_Apps.svg;rounded=0;dashed=1;fillColor=#FFFFFF;" vertex="1" parent="1">
          <mxGeometry x="195" y="627" width="30" height="24" as="geometry" />
        </mxCell>
        <mxCell id="G7z-j5rVqPP3TAjrnrh4-7" value="" style="aspect=fixed;html=1;points=[];align=center;image;fontSize=12;image=img/lib/azure2/preview/Static_Apps.svg;rounded=0;dashed=1;fillColor=#FFFFFF;" vertex="1" parent="1">
          <mxGeometry x="135" y="671" width="30" height="24" as="geometry" />
        </mxCell>
        <mxCell id="G7z-j5rVqPP3TAjrnrh4-8" value="" style="aspect=fixed;html=1;points=[];align=center;image;fontSize=12;image=img/lib/azure2/preview/Static_Apps.svg;rounded=0;dashed=1;fillColor=#FFFFFF;" vertex="1" parent="1">
          <mxGeometry x="195" y="671" width="30" height="24" as="geometry" />
        </mxCell>
        <mxCell id="G7z-j5rVqPP3TAjrnrh4-9" value="前端静态资源" style="text;html=1;strokeColor=none;fillColor=none;align=center;verticalAlign=middle;whiteSpace=wrap;rounded=0;dashed=1;" vertex="1" parent="1">
          <mxGeometry x="140" y="601" width="90" height="12.75" as="geometry" />
        </mxCell>
        <mxCell id="G7z-j5rVqPP3TAjrnrh4-11" value="" style="shape=flexArrow;endArrow=classic;startArrow=none;html=1;width=7;endWidth=15;endSize=4.33;startWidth=15;startSize=4.33;startFill=0;" edge="1" parent="1">
          <mxGeometry width="50" height="50" relative="1" as="geometry">
            <mxPoint x="184.5" y="520" as="sourcePoint" />
            <mxPoint x="184.5" y="580" as="targetPoint" />
          </mxGeometry>
        </mxCell>
        <mxCell id="G7z-j5rVqPP3TAjrnrh4-2" value="&lt;font style=&quot;font-size: 14px&quot;&gt;DMZ&lt;/font&gt;" style="text;html=1;strokeColor=none;fillColor=none;align=center;verticalAlign=middle;whiteSpace=wrap;rounded=0;dashed=1;" vertex="1" parent="1">
          <mxGeometry x="30" y="30" width="65" height="20" as="geometry" />
        </mxCell>
        <mxCell id="G7z-j5rVqPP3TAjrnrh4-13" value="&lt;span style=&quot;font-size: 14px&quot;&gt;trust&lt;/span&gt;" style="text;html=1;strokeColor=none;fillColor=none;align=center;verticalAlign=middle;whiteSpace=wrap;rounded=0;dashed=1;" vertex="1" parent="1">
          <mxGeometry x="320" y="30" width="40" height="20" as="geometry" />
        </mxCell>
        <mxCell id="G7z-j5rVqPP3TAjrnrh4-17" value="" style="endArrow=none;html=1;dashed=1;" edge="1" parent="1" source="G7z-j5rVqPP3TAjrnrh4-25">
          <mxGeometry width="50" height="50" relative="1" as="geometry">
            <mxPoint x="320" y="920" as="sourcePoint" />
            <mxPoint x="310" as="targetPoint" />
          </mxGeometry>
        </mxCell>
        <mxCell id="G7z-j5rVqPP3TAjrnrh4-20" value="" style="endArrow=none;html=1;dashed=1;" edge="1" parent="1">
          <mxGeometry width="50" height="50" relative="1" as="geometry">
            <mxPoint x="-107.5" y="927.6" as="sourcePoint" />
            <mxPoint x="-117.5" y="7.6" as="targetPoint" />
          </mxGeometry>
        </mxCell>
        <mxCell id="G7z-j5rVqPP3TAjrnrh4-22" value="" style="image;html=1;image=img/lib/clip_art/networking/Firewall_02_128x128.png;rounded=0;dashed=1;fillColor=#FFFFFF;" vertex="1" parent="1">
          <mxGeometry x="-137.5" y="443.63" width="50" height="66.37" as="geometry" />
        </mxCell>
        <mxCell id="G7z-j5rVqPP3TAjrnrh4-23" value="" style="endArrow=classic;html=1;" edge="1" parent="1">
          <mxGeometry width="50" height="50" relative="1" as="geometry">
            <mxPoint x="-187.5" y="477.1800000000001" as="sourcePoint" />
            <mxPoint x="-147.5" y="477.1800000000001" as="targetPoint" />
          </mxGeometry>
        </mxCell>
        <mxCell id="G7z-j5rVqPP3TAjrnrh4-24" value="" style="endArrow=classic;html=1;" edge="1" parent="1">
          <mxGeometry width="50" height="50" relative="1" as="geometry">
            <mxPoint x="-87.5" y="396.84999999999997" as="sourcePoint" />
            <mxPoint x="-27.5" y="396.85" as="targetPoint" />
          </mxGeometry>
        </mxCell>
        <mxCell id="G7z-j5rVqPP3TAjrnrh4-25" value="" style="image;html=1;image=img/lib/clip_art/networking/Firewall_02_128x128.png;rounded=0;dashed=1;fillColor=#FFFFFF;" vertex="1" parent="1">
          <mxGeometry x="280" y="402.13" width="50" height="66.37" as="geometry" />
        </mxCell>
        <mxCell id="G7z-j5rVqPP3TAjrnrh4-26" value="" style="endArrow=none;html=1;dashed=1;" edge="1" parent="1" target="G7z-j5rVqPP3TAjrnrh4-25">
          <mxGeometry width="50" height="50" relative="1" as="geometry">
            <mxPoint x="320" y="920" as="sourcePoint" />
            <mxPoint x="310" as="targetPoint" />
          </mxGeometry>
        </mxCell>
        <mxCell id="G7z-j5rVqPP3TAjrnrh4-27" value="" style="shape=flexArrow;endArrow=classic;startArrow=block;html=1;width=7;endWidth=15;endSize=4.33;startWidth=15;startSize=4.33;startFill=0;" edge="1" parent="1">
          <mxGeometry width="50" height="50" relative="1" as="geometry">
            <mxPoint x="235" y="438.9999999999999" as="sourcePoint" />
            <mxPoint x="282.5" y="438.9999999999999" as="targetPoint" />
          </mxGeometry>
        </mxCell>
        <mxCell id="G7z-j5rVqPP3TAjrnrh4-19" value="" style="image;html=1;image=img/lib/clip_art/networking/Firewall_02_128x128.png;rounded=0;dashed=1;fillColor=#FFFFFF;" vertex="1" parent="1">
          <mxGeometry x="-137.5" y="363.69" width="50" height="66.37" as="geometry" />
        </mxCell>
        <mxCell id="G7z-j5rVqPP3TAjrnrh4-31" value="&lt;font style=&quot;font-size: 14px&quot;&gt;九色鹿业务&lt;/font&gt;" style="text;html=1;strokeColor=none;fillColor=none;align=center;verticalAlign=middle;whiteSpace=wrap;rounded=0;dashed=1;fontColor=#FF6666;" vertex="1" parent="1">
          <mxGeometry x="610" y="376.85" width="130" height="20" as="geometry" />
        </mxCell>
      </root>
    </mxGraphModel>
  </diagram>
</mxfile>
